<svg xmlns="http://www.w3.org/2000/svg" viewBox="0 0 48 48"><defs><clipPath id="a"><path fill="none" d="M0 0h48v48H0z"/></clipPath></defs><g data-name="Layer 2"><path fill="#e5e5e5" d="M0 0h48v48H0z"/><path d="M11.65 10a.36.36 0 01-.36-.36V7.67c0-.76-.38-1.19-1.06-1.19a1.23 1.23 0 00-1.05.61 3 3 0 01.05.52v2a.36.36 0 01-.36.36h-.4a.36.36 0 01-.36-.36V7.67c0-.76-.38-1.19-1.06-1.19a1.3 1.3 0 00-1 .6v2.54a.36.36 0 01-.36.36h-.42a.35.35 0 01-.36-.36v-3.7a.35.35 0 01.36-.36h.41a.37.37 0 01.32.28 1.71 1.71 0 011.21-.39 1.91 1.91 0 011.48.66 2.21 2.21 0 011.7-.66 2 2 0 012 2.16v2A.36.36 0 0112 10zM17.74 5.89v3.76a.32.32 0 01-.32.33h-.07a.32.32 0 01-.35-.33v-.13a2.25 2.25 0 01-1.55.57 2.32 2.32 0 010-4.64A2.22 2.22 0 0117 6v-.11a.32.32 0 01.32-.33h.07a.32.32 0 01.32.33M17 8.68V6.87a1.68 1.68 0 00-1.46-.75 1.66 1.66 0 000 3.32A1.73 1.73 0 0017 8.68M19.52 3.51V9.7a.3.3 0 01-.29.29h-.14a.29.29 0 01-.29-.29V3.51a.3.3 0 01.29-.29h.14a.29.29 0 01.29.29M25 5.86V9.7a.3.3 0 01-.29.29h-.15a.3.3 0 01-.29-.29v-.18a2.24 2.24 0 01-1.56.57 2.32 2.32 0 010-4.64 2.26 2.26 0 011.53.55v-.14a.29.29 0 01.29-.3h.15a.29.29 0 01.29.3m-.72 2.82V6.87a1.67 1.67 0 00-1.46-.75 1.66 1.66 0 000 3.32 1.73 1.73 0 001.46-.76M27.77 7.92l-.92.88v.9a.29.29 0 01-.29.29h-.15a.3.3 0 01-.29-.29V3.51a.29.29 0 01.29-.29h.15a.3.3 0 01.29.29v4.34l2.29-2.2a.39.39 0 01.23-.09h.1a.29.29 0 01.2.5l-1.39 1.35 1.83 2.1a.28.28 0 01-.21.47h-.18a.32.32 0 01-.22-.1l-1.73-2zM35.18 7.77a2.35 2.35 0 11-2.34-2.32 2.29 2.29 0 012.34 2.32m-.73 0a1.62 1.62 0 10-3.23 0 1.62 1.62 0 103.23 0M37.24 5.56h1.4a.29.29 0 01.29.3.28.28 0 01-.29.29h-1.4V9.7a.29.29 0 01-.24.3h-.14a.3.3 0 01-.3-.29V6.19h-.82a.29.29 0 01-.3-.29.3.3 0 01.3-.3h.82v-.83a1.57 1.57 0 011.61-1.67 2.79 2.79 0 01.61.07.3.3 0 01.22.32.28.28 0 01-.34.23 2.17 2.17 0 00-.41 0 1 1 0 00-1 1v.79zM41.33 5.56h1.4a.29.29 0 01.29.3.29.29 0 01-.29.29h-1.4V9.7a.29.29 0 01-.33.3h-.15a.3.3 0 01-.29-.29V6.19h-.83a.29.29 0 01-.29-.29.3.3 0 01.29-.3h.83v-.83a1.57 1.57 0 011.7-1.67 2.64 2.64 0 01.6.07.29.29 0 01.23.32.28.28 0 01-.34.23 2.25 2.25 0 00-.41 0 1 1 0 00-1 1v.79zM17.69 14.71h-.3a.16.16 0 01-.14-.24l.58-1a.14.14 0 01.14-.08h.41a.16.16 0 01.13.26l-.68 1a.16.16 0 01-.14.06M13.63 20a.36.36 0 01-.36-.36v-1.97c0-.76-.38-1.19-1.06-1.19a1.25 1.25 0 00-1.06.61 2.24 2.24 0 01.06.52v2a.36.36 0 01-.36.36h-.4a.36.36 0 01-.36-.36v-1.94c0-.76-.38-1.19-1.07-1.19a1.3 1.3 0 00-1 .6v2.54a.36.36 0 01-.36.36h-.42a.35.35 0 01-.35-.36v-3.7a.35.35 0 01.35-.36h.42a.37.37 0 01.35.28 1.71 1.71 0 011.21-.39 1.87 1.87 0 011.47.66 2.25 2.25 0 011.71-.66 2 2 0 012 2.16v2a.36.36 0 01-.4.39zM19.42 18H16a1.53 1.53 0 001.57 1.46 1.32 1.32 0 001.1-.45.29.29 0 01.24-.12h.32a.21.21 0 01.18.31 2.08 2.08 0 01-1.83.91 2.25 2.25 0 01-2.31-2.32 2.23 2.23 0 012.26-2.32 2.13 2.13 0 012.19 2.27.26.26 0 01-.26.24m-3.46-.5h3a1.4 1.4 0 00-1.45-1.4 1.5 1.5 0 00-1.55 1.4M25 13.5v6.19a.3.3 0 01-.29.29h-.14a.29.29 0 01-.29-.29v-.17a2.26 2.26 0 01-1.56.57A2.32 2.32 0 1124.26 16v-2.49a.29.29 0 01.29-.29h.14a.29.29 0 01.29.28m-.72 5.18v-1.81a1.68 1.68 0 00-1.46-.75 1.66 1.66 0 000 3.32 1.73 1.73 0 001.46-.76M33.8 15.77v.12a.29.29 0 01-.25.28 2 2 0 00-1.45.94v2.59a.29.29 0 01-.28.28h-.16a.28.28 0 01-.28-.28v-3.84a.27.27 0 01.28-.28h.16a.28.28 0 01.28.28v.43a2.07 2.07 0 011.37-.8.28.28 0 01.33.28M34.62 13.91a.48.48 0 01.48-.49.48.48 0 01.49.49.47.47 0 01-.49.47.46.46 0 01-.48-.47m.86 1.95v3.84a.28.28 0 01-.28.28H35a.29.29 0 01-.28-.28v-3.84a.3.3 0 01.29-.3h.15a.3.3 0 01.28.3M40.49 18.48h.28a.2.2 0 01.19.26 2.06 2.06 0 01-2 1.35 2.32 2.32 0 010-4.64 2.05 2.05 0 012 1.36.21.21 0 01-.19.27h-.28a.28.28 0 01-.27-.19 1.31 1.31 0 00-1.28-.78 1.66 1.66 0 000 3.32 1.32 1.32 0 001.28-.76.27.27 0 01.27-.19M30.1 18h-3.46a1.53 1.53 0 001.57 1.46 1.34 1.34 0 001.11-.46.27.27 0 01.23-.12h.33a.21.21 0 01.18.31 2.09 2.09 0 01-1.84.91 2.26 2.26 0 01-2.31-2.32 2.23 2.23 0 012.27-2.32 2.13 2.13 0 012.18 2.27.25.25 0 01-.26.24m-3.45-.51h3a1.39 1.39 0 00-1.44-1.4 1.51 1.51 0 00-1.53 1.4M28.38 14.71h-.3a.16.16 0 01-.15-.24l.58-1a.16.16 0 01.15-.08h.4a.17.17 0 01.14.26l-.69 1a.15.15 0 01-.13.06" fill="#141e6e"/><g clip-path="url(#a)"><path d="M51.5 50A27.5 27.5 0 1124 22.47 27.5 27.5 0 0151.5 50M29.28 74.28a13.69 13.69 0 005.37-2.34c7.73-5.21 9.37-14.4 8.2-21.88-1.44-9.26-5.14-13.93-10.33-17.59a.41.41 0 01.35-.74 23.6 23.6 0 0115.6 13.32c0-.11 0-.22-.07-.31a24.77 24.77 0 00-10.83-15.69 24.81 24.81 0 00-4-2.09 25.91 25.91 0 00-12.72 39.12.38.38 0 01-.51.54 22.3 22.3 0 019.57-40.87c-.5-.11-1-.22-1.51-.31-3.17-.57-8.67-.54-12 1.28C6.75 32 4.12 41.66 5.49 50 7 59.18 10.7 63.86 15.91 67.5a.42.42 0 01-.36.74A23.58 23.58 0 01-.49 54c.07.38.14.74.2 1.12A25 25 0 003.46 64a24.47 24.47 0 007.08 6.89 27.49 27.49 0 003.93 2.09A25.91 25.91 0 0031.64 52a25.82 25.82 0 00-4-17.75.38.38 0 01.54-.52 22.29 22.29 0 01-9.46 40.53l1 .2a25.67 25.67 0 009.53-.2" fill="#ebaa28"/></g></g></svg>