<svg xmlns="http://www.w3.org/2000/svg" xmlns:xlink="http://www.w3.org/1999/xlink" viewBox="0 0 32 32"><defs><path id="a" d="M0 0h32v32H0z"/></defs><g fill="none" fill-rule="evenodd"><mask id="b" fill="#fff"><use xlink:href="#a"/></mask><path fill="#F6A500" d="M19.07 30.13c.86-.2 1.8-.46 3.13-1.33 4.53-3 5.47-8.4 4.8-12.73-.87-5.4-3-8.14-6-10.27-.2-.13-.07-.53.2-.47a13.9 13.9 0 019.07 7.74c0-.07 0-.14-.07-.2A14.6 14.6 0 0028 7.73a13.92 13.92 0 00-6.47-5.2 14.84 14.84 0 00-7.66 6.07 15 15 0 00.26 16.73c.14.2-.06.47-.33.34A13 13 0 019.93 7.73a13 13 0 019.4-5.86l-.86-.2c-1.87-.34-5.07-.34-7 .73-5.54 3.13-7 8.73-6.27 13.6.87 5.4 3.07 8.07 6.07 10.2.2.13.06.53-.2.47a13.7 13.7 0 01-9.34-8.27c.07.2.07.47.14.67a14.6 14.6 0 002.2 5.13 13.93 13.93 0 004.13 4c.73.47 1.53.87 2.27 1.2a15.08 15.08 0 007.66-22.53c-.13-.2.14-.47.34-.34a13.01 13.01 0 01-5.53 23.6c.2.07.4.07.6.14 1.86.33 3.73.26 5.53-.14M32 16c0 8.87-7.13 16-16 16-8.87 0-16-7.13-16-16C0 7.13 7.13 0 16 0c8.87 0 16 7.13 16 16" mask="url(#b)"/></g></svg>